<svg xmlns="http://www.w3.org/2000/svg" viewBox="0 0 150 170"><g style="isolation:isolate"><g data-name="Capa 1"><path d="M15.39 43.34c0-18.37 14.9-33.27 33.27-33.27 21.89 0 85.01 10.22 85.01 46.02 0 12.96-2.53 12.9-10.27 33.63-8.16 20.72-14.3 38.89-17.87 51.23-3.98 12.45-5.38 19.06-13.55 19.17-7.7-.11-17.89-19.17-39.64-19.17-28.62 0-17.45-41.89-25.19-62.61-4.86-12.35-11.75-18.81-11.75-35Z" style="fill:#f2f2f2"/><path d="m137.51 154-16.7-57.92a12.85 12.85 0 0 0-8.84-8.8l-22.03-6.25a2.876 2.876 0 0 1-2.09-2.83V63.68c3.87-2.6 5.82-7.85 6.68-14.44h.82c1.81.02 3.3-2.9 3.33-6.51.03-3.61-1.4-6.56-3.21-6.57h-.56l.09-8.67c.06-6.69-4.05-12.54-10.18-15.59-2.46-1.23-5.2-1.81-7.95-1.83h-3.02c-2.75.03-5.49.61-7.95 1.83-6.12 3.05-10.24 8.9-10.18 15.59l.09 8.67h-.56c-1.81.02-3.24 2.96-3.21 6.57.03 3.61 1.53 6.53 3.33 6.51h.82c.86 6.58 2.81 11.84 6.68 14.44v14.43a2.82 2.82 0 0 1-2.09 2.69l-23.06 6.08-1.07.31 3.37-11.31c0-.66-.26-1.29-.73-1.76l-1.77-1.77.29-.26-1.5-20.53c0-1.46-1.18-2.64-2.64-2.64s-2.64 1.18-2.64 2.64l-.94 13.31c-.4-.95-1.34-1.61-2.44-1.61-.51 0-.99.15-1.4.4l-9.58 6.59a6.712 6.712 0 0 0-2.91 5.53l.48 23.4h-2.93v51.28c0 5.34 4.33 9.66 9.66 9.66h89.26l22.46.21c3.32.03 5.74-3.15 4.82-6.34Z" style="fill:#fff"/><path d="M132.75 161.34h-.06l-22.46-.21H21c-5.88 0-10.66-4.78-10.66-10.66V98.19h2.91l-.46-22.38c0-2.56 1.25-4.93 3.34-6.37l9.58-6.59c1.12-.7 2.48-.73 3.56-.21l.79-11.14c0-1.94 1.63-3.57 3.64-3.57s3.64 1.63 3.64 3.64l1.52 20.69 1.17 1.17c.65.65 1.02 1.55 1.02 2.46l-.04.29-2.85 9.58 22.4-5.9c.78-.21 1.34-.92 1.34-1.73v-13.9c-3.38-2.52-5.53-7.1-6.55-13.96-1.24-.01-2.37-.87-3.17-2.44-.7-1.37-1.09-3.16-1.11-5.06-.04-4.03 1.55-7.15 3.76-7.54l-.08-7.7c-.06-6.85 4.05-13.17 10.73-16.5 2.49-1.24 5.39-1.91 8.39-1.94h3.03c3.01.03 5.91.7 8.4 1.94 6.68 3.33 10.8 9.65 10.73 16.5l-.08 7.71c2.21.39 3.79 3.51 3.76 7.54-.02 1.9-.41 3.7-1.11 5.06-.8 1.56-1.92 2.42-3.17 2.44-1.02 6.86-3.16 11.43-6.55 13.95v14c-.02.87.54 1.63 1.36 1.86l22.03 6.25c4.63 1.31 8.19 4.86 9.53 9.48l16.7 57.92a5.9 5.9 0 0 1-.98 5.26 5.92 5.92 0 0 1-4.75 2.36ZM12.34 100.18v50.28c0 4.78 3.89 8.66 8.66 8.66h89.23l22.47.21c1.24 0 2.43-.56 3.2-1.57s1-2.28.65-3.5l-16.7-57.92a11.76 11.76 0 0 0-8.15-8.11l-22.03-6.25a3.884 3.884 0 0 1-2.82-3.81V63.14l.44-.3c3.28-2.2 5.32-6.7 6.24-13.74l.11-.87h1.71c.47 0 1-.5 1.43-1.35.55-1.08.88-2.6.89-4.17.03-3.38-1.29-5.56-2.22-5.56h-1.56l.1-9.68c.06-6.07-3.63-11.7-9.62-14.69-2.22-1.1-4.81-1.7-7.51-1.73h-3.01c-2.69.03-5.29.62-7.5 1.73-5.99 2.99-9.68 8.61-9.62 14.69l.1 9.68h-1.57c-.92 0-2.24 2.18-2.21 5.56.01 1.57.34 3.09.89 4.17.43.85.98 1.36 1.43 1.35h1.71l.11.87c.92 7.04 2.96 11.53 6.25 13.74l.44.3v14.97a3.805 3.805 0 0 1-2.84 3.64l-24.11 6.38-1.76.51 3.84-12.91c-.03-.35-.18-.68-.43-.92l-2.51-2.51.7-.64-1.47-20.05c0-.98-.74-1.72-1.65-1.72s-1.64.74-1.64 1.64l-1.24 17.54-1.62-3.84c-.38-.9-1.57-1.27-2.38-.76l-9.55 6.57a5.688 5.688 0 0 0-2.47 4.7l.5 24.4H12.3Z" style="fill:#fff"/><g style="mix-blend-mode:multiply"><path d="m68.97 80.26.02-14.79c-3.87-2.6-5.82-7.85-6.68-14.44l-.39-14.86-.09-8.67c-.06-6.69 4.05-12.54 10.18-15.59 2-1 4.19-1.55 6.42-1.74-.51-.04-1.02-.09-1.53-.09h-3.02c-2.75.03-5.49.61-7.95 1.83-6.12 3.05-10.24 8.9-10.18 15.59l.09 8.67h-.56c-1.81.02-3.24 2.96-3.21 6.57.03 3.61 1.53 6.53 3.33 6.51h.82c.86 6.58 2.81 11.84 6.68 14.44v14.43c0 1.31-.88 2.37-2.14 2.7l-24.08 6.37-2.16 7.25s5.94 30.05 5.94 31.44c0 13.07-9.01 23.94-19.47 23.94-3.16 0-6.14-.98-8.76-2.7-.57.93-.89 1.06-.89-.39v3.72c0 5.34 4.33 9.66 9.66 9.66h87.51v-26.72h-50c-3.59 0-6.46-3.04-6.2-6.61 2.06-28.26 16.66-46.53 16.66-46.53Z" style="fill:#e6e6e6"/><path d="M108.51 161.12H21c-5.88 0-10.66-4.78-10.66-10.66v-3.72c0-.55.45-1 1-1 .32 0 .61.15.79.39.22-.02.45.03.64.16 2.57 1.68 5.33 2.53 8.21 2.53 10.01 0 18.47-10.51 18.47-22.94-.05-1.21-3.57-19.35-5.92-31.25-.03-.16-.02-.32.02-.48l2.16-7.25c.1-.33.37-.59.7-.68l24.08-6.37c.85-.22 1.4-.9 1.4-1.73V64.2c-3.38-2.52-5.53-7.1-6.55-13.96-1.24-.01-2.37-.87-3.17-2.44-.7-1.37-1.09-3.16-1.11-5.06-.04-4.03 1.55-7.15 3.76-7.54l-.08-7.7c-.06-6.85 4.05-13.17 10.73-16.5 2.49-1.24 5.39-1.91 8.39-1.94h3.03c.54 0 1.07.05 1.6.1.52.04.92.48.92 1a1 1 0 0 1-.9 1c-2.22.19-4.26.74-6.06 1.64-5.99 2.99-9.68 8.61-9.62 14.69l.09 8.67.39 14.8c.92 7.01 2.96 11.49 6.24 13.69.28.19.44.5.44.83l-.02 14.79c0 .23-.08.45-.22.62-.14.18-14.43 18.38-16.44 45.98-.1 1.43.38 2.81 1.37 3.87a5.253 5.253 0 0 0 3.83 1.67h50c.55 0 1 .45 1 1v26.72c0 .55-.45 1-1 1Zm-96.17-12.56v1.89c0 4.78 3.89 8.66 8.66 8.66h86.51v-24.72h-49c-2 0-3.93-.84-5.3-2.31a7.072 7.072 0 0 1-1.9-5.37c1.92-26.35 14.81-44.34 16.66-46.79l.02-13.94c-3.53-2.63-5.71-7.48-6.67-14.82v-.1l-.39-14.86-.09-8.69c-.06-6.63 3.79-12.77 10.11-16.18-1.63.28-3.17.77-4.57 1.47-5.99 2.99-9.68 8.61-9.62 14.69l.09 8.67c0 .27-.1.52-.29.71s-.44.3-.71.3h-.56c-.92 0-2.24 2.18-2.21 5.56.01 1.57.34 3.09.89 4.17.43.85.98 1.36 1.43 1.35h.83c.5 0 .93.37.99.87.92 7.04 2.96 11.53 6.25 13.74.28.19.44.5.44.83v14.43c0 1.74-1.16 3.21-2.89 3.67l-23.53 6.22-1.93 6.48c1.1 5.55 5.91 29.99 5.91 31.39 0 13.52-9.38 24.94-20.47 24.94-2.93 0-5.86-.82-8.52-2.37-.04.04-.08.08-.13.11Zm56.63-68.3Z" style="fill:#e6e6e6"/></g><path d="M37.75 87.89a1.002 1.002 0 0 1-.26-1.97l23.01-6.06c.85-.22 1.4-.9 1.4-1.73V63.9c0-.55.45-1 1-1s1 .45 1 1v14.24c0 1.73-1.16 3.2-2.89 3.66L38 87.86c-.09.02-.17.03-.26.03ZM37.84 73.09c-.52 0-.96-.4-1-.93l-1.5-20.53c0-.98-.74-1.72-1.65-1.72s-1.64.74-1.64 1.64l-.95 13.39c-.04.55-.52.96-1.07.93-.55-.04-.97-.52-.93-1.07l.94-13.31c0-1.94 1.63-3.57 3.64-3.57s3.64 1.63 3.64 3.64l1.5 20.46a.997.997 0 0 1-.92 1.07h-.07Z" style="fill:#646464"/><path d="M35.48 161.34H21c-5.88 0-10.66-4.78-10.66-10.66v-51.5c0-.55.45-1 1-1h1.91l-.46-22.38c0-2.56 1.25-4.93 3.34-6.37l9.58-6.59c.61-.38 1.28-.58 1.96-.58 1.47 0 2.79.87 3.36 2.22a1 1 0 0 1-1.84.78c-.38-.9-1.57-1.26-2.38-.76l-9.55 6.57a5.688 5.688 0 0 0-2.47 4.7l.48 23.38c0 .27-.1.53-.29.72-.19.19-.45.3-.71.3h-1.93v50.5c0 4.78 3.89 8.66 8.66 8.66h14.48c.55 0 1 .45 1 1s-.45 1-1 1Z" style="fill:#646464"/><path d="M41.16 130.62c-.47 0-.89-.33-.98-.81l-6.64-35.17c-.03-.16-.02-.32.02-.47l5.48-18.41c-.03-.35-.18-.68-.43-.92l-4.66-4.66c-.28-.28-.66-.43-1.05-.43h-6.35c-.93 0-1.71.65-1.79 1.48-.06.64.24 1.24.79 1.57l.11.06 5.26 1.91c.36.13.61.46.65.84s-.14.75-.47.95c-.05.03-5.29 3.32-5.43 8.64-.01.55-.5 1-1.03.97a.991.991 0 0 1-.97-1.03c.12-4.42 2.97-7.55 4.82-9.13l-3.58-1.29s-.08-.03-.12-.05l-.24-.12c-1.27-.77-1.94-2.09-1.8-3.5.17-1.85 1.83-3.29 3.78-3.29h6.35c.93 0 1.8.36 2.46 1.02L40 73.44c.65.65 1.02 1.55 1.02 2.46 0 .1-.01.19-.04.29l-5.46 18.33 6.6 34.94a1 1 0 0 1-.8 1.17c-.06.01-.12.02-.19.02Z" style="fill:#646464"/><path d="M22.15 85.41c-.33.02-.69-.02-1.07-.11-2.03-.49-3.39-2.85-2.79-4.85-.09.28 3.02.33 3.26.28 1.98-.45 4.08-2.03 5.3-3.61-1.86-2.14-7.31-.49-6.87-4.64.21-1.92 3.75-4.11 4.15-1.24.11.77.05 1.64.56 2.24.54.65 1.5.7 2.33.84s1.8.61 1.84 1.45c.02.42-.21.81-.43 1.17-1.55 2.5-2.72 8.31-6.28 8.48Z" style="fill:#e6e6e6;mix-blend-mode:multiply"/><path d="M21.48 82.24a4.26 4.26 0 0 1-3.9-2.53c-.23-.5 0-1.1.5-1.32.51-.23 1.1 0 1.32.5.28.62.81 1.08 1.46 1.26.65.18 1.34.07 1.9-.31l6.35-4.37a.997.997 0 0 1 1.39.26c.31.46.2 1.08-.26 1.39l-6.35 4.37c-.72.5-1.56.75-2.42.75ZM69.2 66.47c-7.69 0-12.23-5.31-13.85-16.22-2.4-.02-4.24-3.23-4.29-7.5-.04-4.04 1.55-7.16 3.76-7.54l-.08-7.7c-.06-6.85 4.05-13.17 10.73-16.5 2.49-1.24 5.39-1.91 8.39-1.94h3.03c3.01.03 5.91.7 8.4 1.94 6.68 3.33 10.8 9.65 10.73 16.5l-.08 7.71c2.21.39 3.79 3.51 3.76 7.54-.02 1.9-.41 3.7-1.11 5.06-.8 1.56-1.92 2.42-3.17 2.44-1.62 10.91-6.16 16.21-13.85 16.22h-.16c-.55 0-1-.46-.99-1.01 0-.55.45-.99 1-.99h.15c6.81 0 10.62-4.88 11.99-15.35.06-.5.49-.87.99-.87h.83c.47 0 1-.5 1.43-1.35.55-1.08.88-2.6.89-4.17.03-3.38-1.29-5.56-2.22-5.56h-.55a1.007 1.007 0 0 1-1-1.01l.09-8.67c.06-6.07-3.63-11.7-9.62-14.69-2.22-1.1-4.81-1.7-7.51-1.73h-3.01c-2.69.03-5.29.62-7.5 1.73-5.99 2.99-9.68 8.61-9.62 14.69l.09 8.67c0 .27-.1.52-.29.71s-.44.3-.71.3h-.56c-.92 0-2.24 2.18-2.21 5.56.03 3.38 1.39 5.52 2.32 5.52h.84c.5 0 .93.37.99.87 1.38 10.54 5.22 15.45 12.13 15.34.55 0 1 .44 1 .99s-.44 1-.99 1.01h-.16Z" style="fill:#646464"/><path d="M74.17 47.91h-.62c-.55 0-1-.45-1-1s.45-1 1-1h.62c1.04 0 1.89-.85 1.89-1.89V41c0-.55.45-1 1-1s1 .45 1 1v3.02c0 2.15-1.75 3.89-3.89 3.89ZM34.86 100.18H14.27c-.55 0-1-.45-1-1s.45-1 1-1h20.6c.55 0 1 .45 1 1s-.45 1-1 1ZM37.84 73.09c-.25 0-.49-.09-.68-.27l-7.73-7.22a.973.973 0 0 1-.31-.8l.94-13.32c0-1.94 1.63-3.57 3.64-3.57s3.62 1.61 3.64 3.6l1.5 20.5a1 1 0 0 1-.57.98c-.14.07-.29.1-.43.1Zm-6.7-8.62 5.52 5.15-1.32-17.99v-.07c0-.91-.74-1.64-1.64-1.64s-1.64.74-1.64 1.64l-.91 12.91Zm6.2-12.91ZM75.38 90.99c-6.5 0-12.27-3.91-14.68-9.96a.994.994 0 0 1 .56-1.3c.51-.2 1.09.04 1.3.56 2.11 5.29 7.14 8.7 12.83 8.7s10.72-3.42 12.83-8.7c.2-.51.79-.76 1.3-.56.51.2.76.79.56 1.3-2.41 6.05-8.18 9.96-14.68 9.96Z" style="fill:#646464"/><g><path d="m36.79 153.82 8.03-6.42-7.52 1.31c-1.36.28-2.4 1.51-2.26 2.89.11 1.06.82 1.89 1.74 2.22ZM64.38 136.8v2.73l-6.42.91c-3.71.48-7.21 2.01-10.08 4.41l-13.83 11.54c-1.61 1.34-.66 3.95 1.43 3.95h74.03v-27.2l-45.12 3.66Z" style="fill:#fff"/></g><g><path d="M36.79 154.82c-.11 0-.23-.02-.34-.06a3.636 3.636 0 0 1-2.4-3.05c-.2-1.85 1.14-3.59 3.05-3.98l7.54-1.31c.54-.09 1.06.27 1.16.81.09.54-.27 1.06-.81 1.16l-7.52 1.31c-.88.18-1.52.97-1.43 1.8.07.64.48 1.17 1.08 1.38.52.19.79.76.6 1.28-.15.41-.53.66-.94.66Z" style="fill:#646464"/><path d="M64.38 161.34h-28.9c-1.38 0-2.57-.84-3.04-2.13-.47-1.3-.09-2.7.97-3.59l13.83-11.54c3.02-2.53 6.68-4.13 10.6-4.64l5.55-.79v-1.86c0-.52.4-.95.92-1l45.12-3.66c.54-.05 1.03.36 1.08.92.04.55-.37 1.03-.92 1.08l-44.2 3.58v1.81c0 .5-.37.92-.86.99l-6.42.91c-3.54.45-6.85 1.9-9.58 4.19L34.7 157.15c-.62.52-.44 1.18-.37 1.37.07.19.36.81 1.16.81h28.9c.55 0 1 .45 1 1s-.45 1-1 1Z" style="fill:#646464"/></g><path d="M132.75 161.34H64.38c-.55 0-1-.45-1-1v-20.81c0-.55.45-1 1-1s1 .45 1 1v19.81h67.31c1.28.02 2.44-.56 3.21-1.57s1-2.28.65-3.5l-16.7-57.92a11.76 11.76 0 0 0-8.15-8.11l-22.02-6.25a3.884 3.884 0 0 1-2.82-3.81V64.27c0-.55.45-1 1-1s1 .45 1 1V78.2c-.02.87.54 1.63 1.36 1.86l22.02 6.25c4.63 1.31 8.19 4.86 9.53 9.48l16.7 57.92a5.9 5.9 0 0 1-.98 5.26 5.92 5.92 0 0 1-4.75 2.36Z" style="fill:#646464"/><g><rect x="44.82" y="150.5" width="92.89" height="9.84" rx="3" ry="3" style="fill:#be005a"/><path d="M134.71 161.34H47.82c-2.21 0-4-1.79-4-4v-3.84c0-2.21 1.79-4 4-4h86.89c2.21 0 4 1.79 4 4v3.84c0 2.21-1.79 4-4 4Zm-86.89-9.84c-1.1 0-2 .9-2 2v3.84c0 1.1.9 2 2 2h86.89c1.1 0 2-.9 2-2v-3.84c0-1.1-.9-2-2-2H47.82Z" style="fill:#be005a"/><g style="mix-blend-mode:multiply"><rect x="44.82" y="150.5" width="92.89" height="9.84" rx="3" ry="3" style="fill:#e6e6e6"/><path d="M134.71 161.34H47.82c-2.21 0-4-1.79-4-4v-3.84c0-2.21 1.79-4 4-4h86.89c2.21 0 4 1.79 4 4v3.84c0 2.21-1.79 4-4 4Zm-86.89-9.84c-1.1 0-2 .9-2 2v3.84c0 1.1.9 2 2 2h86.89c1.1 0 2-.9 2-2v-3.84c0-1.1-.9-2-2-2H47.82Z" style="fill:#e6e6e6"/></g><g style="mix-blend-mode:multiply"><path d="M44.82 154.22a3.72 3.72 0 0 1 3.72-3.72h85.44a3.72 3.72 0 0 1 3.72 3.72H44.82Z" style="fill:#e6e6e6"/><path d="M138.71 155.22H43.82v-1c0-2.6 2.12-4.72 4.72-4.72h85.44c2.61 0 4.72 2.12 4.72 4.72v1Zm-92.7-2h90.51a2.717 2.717 0 0 0-2.53-1.72H48.54c-1.15 0-2.13.72-2.53 1.72Z" style="fill:#e6e6e6"/></g><g><rect x="44.82" y="100.28" width="92.89" height="50.22" rx="3" ry="3" style="fill:#be005a"/><path d="M134.71 151.5H47.82c-2.21 0-4-1.79-4-4v-44.22c0-2.21 1.79-4 4-4h86.89c2.21 0 4 1.79 4 4v44.22c0 2.21-1.79 4-4 4Zm-86.89-50.22c-1.1 0-2 .9-2 2v44.22c0 1.1.9 2 2 2h86.89c1.1 0 2-.9 2-2v-44.22c0-1.1-.9-2-2-2H47.82Z" style="fill:#be005a"/></g><g style="mix-blend-mode:multiply"><path d="M53 146.95a3.72 3.72 0 0 1-3.72-3.72v-39.48c0-.83.65-1.51 1.48-1.53 11.25-.26 82.7-1.9 82.7-1.95H48.54a3.72 3.72 0 0 0-3.72 3.72v42.77a3.72 3.72 0 0 0 3.72 3.72h85.44c2 0 3.61-1.57 3.71-3.54H53Z" style="fill:#e6e6e6"/><path d="M133.99 151.5H48.54c-2.61 0-4.72-2.12-4.72-4.73V104c0-2.6 2.12-4.72 4.72-4.72h85.96l-.04 1.03c-.02.59-.03.81-1 .92v.04h-.48c-.59.04-1.42.06-2.58.09-1.98.05-4.81.12-8.25.2-6.88.17-16.16.38-25.79.61-19.27.45-39.94.92-45.57 1.05-.28 0-.51.24-.51.53v39.48c0 1.5 1.22 2.73 2.72 2.73h85.74l-.05 1.05a4.717 4.717 0 0 1-4.71 4.5Zm-85.45-50.22c-1.5 0-2.72 1.22-2.72 2.72v42.77c0 1.5 1.22 2.73 2.72 2.73h85.44c1.07 0 2.01-.63 2.44-1.54H53c-2.61 0-4.72-2.12-4.72-4.73v-39.48c0-1.23.86-2.25 2.02-2.48h-1.75Z" style="fill:#e6e6e6"/></g><path d="M127.37 109.9h-10.09c-.55 0-1-.45-1-1s.45-1 1-1h10.09c.55 0 1 .45 1 1s-.45 1-1 1Z" style="fill:#fff;opacity:.3"/><g style="mix-blend-mode:multiply"><circle cx="91.27" cy="125.39" r="7.43" style="fill:#e6e6e6"/><path d="M91.27 133.81c-4.65 0-8.43-3.78-8.43-8.43s3.78-8.43 8.43-8.43 8.43 3.78 8.43 8.43-3.78 8.43-8.43 8.43Zm0-14.85c-3.54 0-6.43 2.88-6.43 6.43s2.88 6.43 6.43 6.43 6.43-2.88 6.43-6.43-2.88-6.43-6.43-6.43Z" style="fill:#e6e6e6"/></g></g></g></g></svg>