<?xml version="1.0" encoding="UTF-8"?>
<!DOCTYPE svg PUBLIC "-//W3C//DTD SVG 1.1//EN" "http://www.w3.org/Graphics/SVG/1.1/DTD/svg11.dtd">
<!-- Creator: CorelDRAW -->
<svg xmlns="http://www.w3.org/2000/svg" xml:space="preserve" width="163.153mm" height="19.3014mm" version="1.1" style="shape-rendering:geometricPrecision; text-rendering:geometricPrecision; image-rendering:optimizeQuality; fill-rule:evenodd; clip-rule:evenodd"
viewBox="0 0 16315.28 1930.14"
 xmlns:xlink="http://www.w3.org/1999/xlink"
 xmlns:xodm="http://www.corel.com/coreldraw/odm/2003">
 <defs>
  <style type="text/css">
   <![CDATA[
    .fil0 {fill:#A10062;fill-rule:nonzero}
   ]]>
  </style>
 </defs>
 <g id="Capa_x0020_1">
  <metadata id="CorelCorpID_0Corel-Layer"/>
  <g id="_2420433410848">
   <path class="fil0" d="M14893.87 374.77l0 -52.56c0,-15.57 0.97,-31.15 2.92,-47.21 3.89,-44.77 15.09,-76.41 33.58,-94.9 18.49,-18.49 51.59,-27.74 98.8,-27.74l1207.92 0c46.24,0 70.08,22.39 71.06,67.16l0 55.48c0,23.85 -0.98,47.21 -2.92,70.08 -1.95,38.94 -12.17,67.16 -30.66,84.68 -18.5,17.53 -53.54,26.29 -104.64,26.29l-365 0 0 1066.3c0,52.07 0.48,107.56 1.46,165.96 0.97,58.4 1.46,107.06 1.46,146 0,42.83 -19.47,65.21 -58.89,67.16 -17.04,1.95 -35.53,2.92 -55.48,2.92l-73 0 -11.2 0 -44.28 0c-15.58,0 -30.67,-0.97 -45.75,-2.92 -41.37,-3.89 -72.03,-15.57 -92.47,-35.04 -20.44,-19.47 -30.66,-52.07 -30.66,-98.8l0 -1311.58 -425.35 0c-29.69,0 -49.65,-5.36 -60.35,-15.58 -11.2,-10.71 -16.55,-32.61 -16.55,-65.7z"/>
   <path class="fil0" d="M10243.56 643.42c0,-39.43 20.44,-59.87 61.32,-61.81 18.98,-1.95 37.48,-2.92 55.48,-2.92l47.21 0 51.1 0c18.01,0 35.04,0.97 51.1,2.92 23.85,1.94 42.34,8.27 55.48,19.46 13.63,10.71 23.85,30.18 31.64,57.92l8.27 31.63 5.84 0c64.73,-43.31 135.78,-76.89 213.65,-101.23 78.36,-24.82 157.2,-36.98 237.01,-36.98 155.25,0 262.81,41.85 322.18,126.05 59.38,84.19 89.06,208.29 89.06,372.3l0 640.47c0,29.2 0.49,57.42 1.46,85.16 0.98,27.26 1.46,48.67 1.46,63.76 0,21.9 -4.86,36.01 -15.08,42.83 -9.74,6.81 -26.28,11.68 -49.16,15.57 -17.03,3.89 -36.01,5.84 -56.94,5.84l-62.29 0 -54.51 0c-20.44,0 -41.37,-1.95 -62.29,-5.84 -36.99,-5.35 -62.79,-17.52 -77.87,-36.01 -14.6,-18.5 -21.9,-53.05 -21.9,-103.18l0 -673.07c0,-87.12 -15.09,-147.46 -45.75,-180.56 -30.17,-33.09 -76.41,-49.64 -138.22,-49.64 -42.82,0 -87.6,6.82 -133.83,19.96 -46.72,13.14 -85.66,29.68 -117.29,49.64 1.95,18.98 3.89,46.72 5.84,82.73 1.95,36.02 2.92,73.49 2.92,112.42l0 570.39c0,29.2 0.49,57.42 1.46,85.16 0.97,27.26 1.46,48.67 1.46,63.76 0,21.9 -4.87,36.5 -14.11,42.83 -9.74,6.81 -26.28,12.16 -50.13,15.57 -17.04,3.89 -36.02,5.84 -56.94,5.84l-62.3 0 -54.5 0c-20.45,0 -41.37,-1.95 -62.3,-5.84 -36.99,-5.35 -62.78,-17.52 -77.87,-36.01 -14.6,-18.5 -21.9,-53.05 -21.9,-103.18l0 -747.05c0,-81.76 -1.46,-154.27 -4.38,-216.57 -2.92,-62.29 -4.38,-113.39 -4.38,-152.32z"/>
   <path class="fil0" d="M8285.29 642.93c0,-21.9 4.87,-36.02 14.12,-42.83 9.73,-6.81 26.28,-11.68 50.12,-15.57 17.04,-3.9 36.5,-5.84 57.43,-5.84l62.78 0 52.56 0c20.93,0 42.34,1.94 63.27,5.84 36.99,5.35 62.78,17.52 77.38,36.01 15.09,18.49 22.39,53.54 22.39,105.12l0 965.08c0,29.2 0.49,57.91 1.46,85.17 0.97,27.74 1.46,49.15 1.46,64.24 0,21.9 -4.87,36.01 -14.11,42.83 -9.74,6.81 -26.28,11.68 -50.13,15.57 -17.04,3.89 -36.5,5.84 -57.43,5.84l-62.78 0 -54.02 0c-20.93,0 -41.86,-1.95 -62.78,-5.84 -37.48,-5.35 -63.27,-17.52 -77.38,-36.01 -14.12,-18.5 -21.42,-53.05 -21.42,-103.67l0 -966.53c0,-29.2 -0.48,-57.92 -1.46,-85.17 -0.97,-27.74 -1.46,-49.15 -1.46,-64.24z"/>
   <path class="fil0" d="M8259.01 202c0,-134.32 76.9,-201.48 230.69,-201.48l11.19 0c77.87,0 133.84,17.03 168.39,50.61 34.07,34.07 51.1,84.2 51.1,150.87 0,136.27 -75.92,204.4 -227.76,204.4l-11.68 0c-77.39,0 -134.33,-17.03 -169.37,-50.61 -35.04,-34.07 -52.56,-85.17 -52.56,-153.79z"/>
   <path class="fil0" d="M7118.48 805.96l0 -32.6c0,-9.25 0.97,-20.93 2.92,-34.07 1.95,-18.98 6.81,-34.55 14.6,-46.23 8.27,-12.17 22.87,-27.74 43.31,-47.7l173.26 -153.79 170.34 -161.09c21.9,-21.9 40.39,-36.5 55.48,-44.28 15.09,-7.3 35.53,-11.2 60.83,-11.2l34.07 0c35.04,0 52.56,17.52 52.56,52.56l0 265.73 116.8 0c40.88,0 79.33,-0.49 115.83,-1.46 36.02,-0.98 67.65,-1.46 95.39,-1.46l61.32 0c23.85,0 40.39,4.38 49.64,13.62 9.73,8.76 14.6,24.82 14.6,47.7l0 35.53c0,13.14 -0.97,30.66 -2.92,52.56 -3.89,44.28 -17.52,74.94 -41.37,91.49 -23.84,16.55 -57.91,24.82 -102.68,24.82 -38.94,0 -85.66,-0.48 -139.68,-1.46 -54.51,-0.97 -109.99,-1.46 -166.93,-1.46l0 556.76c0,86.14 15.57,148.43 47.21,187.37 31.15,39.42 82.25,58.89 153.79,58.89 54.02,0 103.66,-6.33 149.41,-18.5 7.3,-1.94 15.57,-4.38 24.82,-6.81 8.76,-2.43 18.49,-3.89 27.74,-3.89 18.98,0 33.58,6.81 43.31,20.44 10.22,14.11 15.09,31.63 15.09,53.53 0,74.46 -33.58,130.92 -101.23,170.34 -67.65,39.42 -159.14,59.37 -274.97,59.37 -163.52,0 -282.76,-34.55 -358.19,-103.17 -74.95,-68.63 -112.43,-177.64 -112.43,-327.54 0,-38.93 0.49,-84.19 1.46,-135.78 0.98,-51.59 1.95,-106.58 2.92,-164.5l2.92 -174.71c0.98,-59.38 1.46,-116.32 1.46,-171.8l-181.53 0c-32.6,0 -49.15,-15.57 -49.15,-47.21z"/>
   <path class="fil0" d="M5885.82 1226.94c0,-108.04 15.58,-203.92 47.21,-287.63 31.63,-84.19 76.41,-154.76 135.29,-211.21 58.41,-56.94 129.46,-100.26 212.68,-130.43 83.22,-30.18 175.2,-45.26 276.92,-45.26 158.17,0 278.38,28.71 361.11,86.14 82.74,57.43 124.1,127.99 124.1,211.7 0,54.02 -17.52,97.82 -51.58,130.92 -34.07,33.58 -72.52,50.13 -115.34,50.13 -15.09,0 -25.8,-2.93 -32.13,-9.25 -6.32,-6.33 -14.11,-17.04 -23.84,-32.12 -36.99,-62.3 -77.38,-107.56 -121.18,-135.78 -43.32,-27.75 -96.85,-41.86 -159.63,-41.86 -73.98,0 -135.3,29.69 -183.97,89.55 -48.18,59.86 -72.51,153.3 -72.51,280.81 0,145.03 26.77,258.43 80.79,339.7 54.02,81.27 143.57,122.16 268.64,122.16 62.78,0 115.83,-6.82 159.14,-19.96 42.83,-13.14 80.31,-28.23 112.91,-45.75 9.74,-3.89 18.5,-8.76 26.28,-14.11 8.28,-5.35 19.96,-7.79 35.53,-7.79 17.03,0 32.12,8.28 44.77,24.82 13.14,16.55 19.47,37.48 19.47,62.79 0,38.93 -11.19,74.94 -33.58,108.52 -22.39,33.58 -53.53,63.76 -94.41,91.5 -40.88,27.25 -91.01,48.18 -150.39,63.27 -59.37,15.08 -126.53,22.87 -201.48,22.87 -219,0 -384.96,-60.35 -496.9,-181.04 -111.93,-121.18 -167.9,-295.41 -167.9,-522.69z"/>
   <path class="fil0" d="M3530.29 805.96l0 -32.6c0,-9.25 0.97,-20.93 2.92,-34.07 1.95,-18.98 6.81,-34.55 14.6,-46.23 8.27,-12.17 22.87,-27.74 43.31,-47.7l173.26 -153.79 170.34 -161.09c21.9,-21.9 40.39,-36.5 55.48,-44.28 15.09,-7.3 35.53,-11.2 60.83,-11.2l34.07 0c35.04,0 52.56,17.52 52.56,52.56l0 265.73 116.8 0c40.88,0 79.33,-0.49 115.83,-1.46 36.02,-0.98 67.65,-1.46 95.39,-1.46l61.32 0c23.85,0 40.39,4.38 49.64,13.62 9.73,8.76 14.6,24.82 14.6,47.7l0 35.53c0,13.14 -0.97,30.66 -2.92,52.56 -3.89,44.28 -17.52,74.94 -41.37,91.49 -23.84,16.55 -57.91,24.82 -102.68,24.82 -38.94,0 -85.66,-0.48 -139.68,-1.46 -54.51,-0.97 -109.99,-1.46 -166.93,-1.46l0 556.76c0,86.14 15.57,148.43 47.21,187.37 31.15,39.42 82.25,58.89 153.79,58.89 54.02,0 103.66,-6.33 149.41,-18.5 7.3,-1.94 15.57,-4.38 24.82,-6.81 8.76,-2.43 18.49,-3.89 27.74,-3.89 18.98,0 33.58,6.81 43.31,20.44 10.22,14.11 15.09,31.63 15.09,53.53 0,74.46 -33.58,130.92 -101.23,170.34 -67.65,39.42 -159.14,59.37 -274.97,59.37 -163.52,0 -282.76,-34.55 -358.19,-103.17 -74.95,-68.63 -112.43,-177.64 -112.43,-327.54 0,-38.93 0.49,-84.19 1.46,-135.78 0.98,-51.59 1.95,-106.58 2.92,-164.5l2.92 -174.71c0.98,-59.38 1.46,-116.32 1.46,-171.8l-181.53 0c-32.6,0 -49.15,-15.57 -49.15,-47.21z"/>
   <path class="fil0" d="M1366.64 642.93c0,-38.94 20.44,-59.38 61.32,-61.32 18.98,-1.95 37.48,-2.92 55.48,-2.92l47.21 0 51.1 0c18.01,0 35.04,0.97 51.1,2.92 27.74,1.94 48.18,8.76 61.32,20.44 13.14,12.16 22.88,32.6 28.72,62.29l11.19 61.32 8.76 0c96.85,-115.34 205.87,-173.25 327.53,-173.25 59.87,0 106.59,18 139.68,54.02 33.58,35.53 50.13,86.14 50.13,151.35 0,52.08 -8.28,94.42 -24.82,127.51 -16.55,33.1 -41.86,49.64 -74.95,49.64 -11.68,0 -22.87,-1.94 -35.04,-6.32 -11.68,-4.38 -25.31,-8.28 -40.4,-11.68 -13.62,-3.41 -31.63,-7.3 -54.99,-11.2 -23.36,-3.89 -45.75,-5.84 -67.65,-5.84 -72.51,0 -137.73,10.71 -195.64,32.61 1.95,27.74 3.41,61.81 4.38,102.69 0.97,40.88 1.46,79.81 1.46,116.8l0 538.75c0,29.2 0.49,57.91 1.46,85.65 0.97,27.26 1.46,48.67 1.46,63.76 0,21.9 -4.87,36.01 -14.11,42.83 -9.74,6.81 -26.28,11.68 -50.13,15.57 -17.04,3.89 -36.02,5.84 -56.94,5.84l-62.3 0 -54.5 0c-20.45,0 -41.37,-1.95 -62.3,-5.84 -36.99,-5.35 -62.78,-17.52 -77.87,-36.01 -14.6,-18.5 -21.9,-53.05 -21.9,-103.67l0 -748.02c0,-81.76 -1.46,-153.78 -4.38,-216.08 -2.92,-62.29 -4.38,-112.91 -4.38,-151.84z"/>
   <path class="fil0" d="M13605.7 248.23c0,-28.22 5.84,-47.69 17.04,-57.91 11.68,-10.71 30.17,-18.49 55.96,-23.36 70.09,-7.79 140.65,-13.14 211.22,-16.06 71.06,-2.92 147.46,-4.38 228.74,-4.38 275.94,0 474.02,43.8 594.23,131.89 120.21,88.09 180.55,226.3 180.55,414.65 0,145.51 -30.66,264.75 -91.49,357.22 -60.83,92.95 -141.14,158.16 -240.42,195.15 51.1,98.31 102.2,189.32 153.31,272.54l165.46 251.61c9.25,15.09 18.5,28.71 27.26,41.37 8.27,12.65 12.65,24.82 12.65,36.01 0,21.42 -6.32,35.04 -18.49,40.4 -12.66,5.84 -29.69,10.7 -51.59,14.11 -13.14,1.95 -29.2,3.41 -47.69,4.38 -18.5,0.97 -35.53,1.46 -50.62,1.46l-32.6 0 -49.65 0c-15.08,0 -34.55,-0.97 -57.91,-2.92 -38.45,-3.89 -71.05,-16.06 -96.85,-36.99 -25.79,-21.41 -51.59,-54.99 -76.89,-100.74l-53.54 -108.04 -59.37 -119.72 -59.38 -119.24c-18.98,-39.42 -36.5,-76.41 -52.56,-110.96l-195.64 0 0 219c0,51.59 0.49,106.1 1.46,164.01 0.97,57.43 1.46,105.61 1.46,144.06 0,41.85 -19.47,63.75 -58.4,65.7 -17.03,1.95 -36.01,2.92 -56.94,2.92l-73 0 -11.2 0 -42.82 0c-15.09,0 -30.66,-0.97 -46.72,-2.92 -40.89,-3.89 -71.55,-15.09 -91.99,-34.55 -20.44,-18.98 -30.66,-51.59 -30.66,-97.34l0 -1230.31c0,-56.94 -0.48,-109.02 -1.46,-157.2 -0.97,-47.69 -1.46,-92.47 -1.46,-133.84zm401.51 204.9c3.89,27.25 6.81,55.96 8.27,86.62 1.46,30.66 1.95,73.98 1.95,130.92l0 190.29 0 70.57c0,24.33 -1.46,48.18 -4.38,70.56 25.79,1.95 51.59,2.92 77.38,2.92l87.12 0c107.55,0 185.42,-21.41 234.09,-63.75 48.66,-42.34 73,-116.32 73,-222.9 0,-93.93 -24.34,-162.06 -73,-204.4 -48.67,-42.34 -130.43,-63.75 -245.77,-63.75l-76.9 0c-26.77,0 -54.02,0.97 -81.76,2.92z"/>
   <path class="fil0" d="M11995.09 1823.12c0,-21.91 5.84,-53.54 17.52,-95.39l42.34 -152.33 185.91 -664.8c62.78,-214.62 128.97,-432.17 198.57,-652.63 9.24,-33.58 23.84,-56.94 43.31,-70.57 19.47,-14.11 42.34,-22.87 68.13,-26.28 42.83,-5.84 96.37,-8.76 161.09,-8.76l70.08 0c81.77,0 144.06,11.19 186.89,33.58 42.82,21.9 74.95,66.19 95.87,132.38 47.7,100.74 97.34,213.16 149.41,336.78l51.59 311.95 138.7 350.41 88.58 307.58c17.03,71.54 30.66,122.64 40.39,153.79 10.22,31.15 15.09,56.94 15.09,76.89 0,9.74 -4.87,18.5 -15.09,25.8 -9.73,7.3 -29.69,13.14 -59.37,17.03 -18.98,1.95 -37.96,3.41 -57.92,4.38 -19.95,0.97 -40.39,1.46 -61.32,1.46l-39.42 0 -40.88 0c-14.6,0 -33.09,-0.97 -54.99,-2.92 -42.83,-3.89 -73.98,-16.55 -93.45,-37.96 -19.46,-21.41 -35.52,-55.48 -48.18,-102.2l-40.39 -169.37 -575.25 0 -47.21 236.53c-3.89,25.79 -10.71,42.83 -20.93,51.59 -9.73,8.76 -25.3,14.6 -46.23,18.49 -15.09,3.89 -33.09,5.84 -54.02,5.84l-68.14 0 -38.44 0 -52.56 0c-18.98,0 -37.48,-0.97 -55.48,-2.92 -27.74,-3.89 -48.19,-10.71 -62.79,-21.41 -14.11,-10.22 -21.41,-29.2 -21.41,-56.94zm535.34 -517.34l438.5 0 -103.18 -428.27c-35.52,-145.52 -69.59,-274.98 -103.17,-388.86l-32.12 0 -105.12 388.86c-33.1,145.51 -64.73,288.11 -94.91,428.27z"/>
   <path class="fil0" d="M8808.41 1238.62c0,-111.45 17.04,-210.25 50.62,-294.93 34.06,-85.16 81.27,-157.19 141.62,-215.59 60.83,-58.89 132.37,-102.69 215.11,-131.89 83.22,-29.2 174.71,-43.8 274.48,-43.8 203.43,0 362.58,56.94 477.43,171.31 114.86,113.88 172.28,285.67 172.28,514.9 0,114.85 -16.06,215.11 -47.69,301.25 -32.12,86.14 -77.38,158.66 -136.27,216.57 -58.4,58.4 -128.97,102.2 -210.73,130.92 -82.25,28.71 -174.23,43.31 -275.94,43.31 -206.84,0 -368.9,-59.37 -485.71,-178.12 -116.8,-119.24 -175.2,-290.06 -175.2,-513.93zm408.81 -64.24c0,74.46 4.87,143.08 15.09,205.86 9.73,62.78 25.79,116.32 47.69,161.58 22.39,44.77 51.59,79.81 87.11,104.15 36.02,24.33 79.82,36.5 131.89,36.5 81.28,0 140.17,-30.66 177.15,-92.47 36.5,-61.81 55,-157.2 55,-286.65 0,-160.61 -18.5,-282.76 -55,-365.98 -36.98,-83.22 -105.12,-125.08 -203.91,-125.08 -83.23,0 -146.49,30.66 -189.81,92.47 -43.31,61.81 -65.21,151.84 -65.21,269.62z"/>
   <path class="fil0" d="M4608.58 1243.49c0,-112.91 15.58,-212.68 46.24,-299.31 31.14,-86.14 75.43,-158.66 133.34,-217.06 57.43,-58.4 126.54,-102.2 206.35,-131.4 80.31,-28.71 169.85,-43.31 269.14,-43.31 174.23,0 310.01,54.5 407.83,163.03 97.33,109.02 146,266.7 146,472.56 0,40.89 -4.86,72.52 -14.6,94.91 -10.22,22.38 -31.63,35.52 -64.24,38.93 -47.69,3.89 -103.17,6.33 -166.44,7.3l-202.46 0c-44.29,0 -98.31,-0.49 -161.57,-1.95 -63.27,-1.46 -127.03,-3.4 -190.78,-5.35 -1.95,104.64 30.66,184.94 97.82,239.93 66.67,55 158.66,82.74 275.46,82.74 49.64,0 98.79,-3.9 146.97,-12.17 48.19,-8.27 86.63,-18.01 115.83,-28.23 11.2,-3.41 22.88,-7.79 34.56,-13.14 11.68,-5.35 24.82,-7.79 39.9,-7.79 16.55,0 30.66,7.79 41.37,22.88 10.71,15.09 16.06,33.58 16.06,54.99 0,81.28 -43.8,146.49 -130.91,195.65 -87.12,49.15 -204.89,73.97 -352.84,73.97 -212.19,0 -381.07,-56.45 -505.66,-169.36 -125.07,-112.91 -187.37,-285.19 -187.37,-517.82zm391.78 -142.11c33.09,-3.9 65.7,-5.84 97.82,-5.84l92.95 0 138.7 0c44.29,0 91.01,-0.98 140.17,-2.92 0,-107.56 -19.47,-185.43 -57.92,-234.09 -38.93,-48.19 -96.85,-72.52 -174.23,-72.52 -69.59,0 -126.53,27.25 -170.82,82.25 -44.77,54.51 -66.67,132.37 -66.67,233.12z"/>
   <path class="fil0" d="M2223.62 1238.62c0,-111.45 17.04,-210.25 50.62,-294.93 34.06,-85.16 81.27,-157.19 141.62,-215.59 60.83,-58.89 132.37,-102.69 215.11,-131.89 83.22,-29.2 174.71,-43.8 274.48,-43.8 203.43,0 362.58,56.94 477.43,171.31 114.86,113.88 172.28,285.67 172.28,514.9 0,114.85 -16.06,215.11 -47.69,301.25 -32.12,86.14 -77.38,158.66 -136.27,216.57 -58.4,58.4 -128.97,102.2 -210.73,130.92 -82.25,28.71 -174.23,43.31 -275.94,43.31 -206.84,0 -368.9,-59.37 -485.71,-178.12 -116.8,-119.24 -175.2,-290.06 -175.2,-513.93zm408.81 -64.24c0,74.46 4.87,143.08 15.09,205.86 9.73,62.78 25.79,116.32 47.69,161.58 22.39,44.77 51.59,79.81 87.11,104.15 36.02,24.33 79.82,36.5 131.89,36.5 81.28,0 140.17,-30.66 177.15,-92.47 36.5,-61.81 55,-157.2 55,-286.65 0,-160.61 -18.5,-282.76 -55,-365.98 -36.98,-83.22 -105.12,-125.08 -203.91,-125.08 -83.23,0 -146.49,30.66 -189.81,92.47 -43.31,61.81 -65.21,151.84 -65.21,269.62z"/>
   <path class="fil0" d="M-7.14 244.34c0,-30.66 5.84,-51.59 17.04,-63.27 11.68,-11.68 32.12,-18.49 61.32,-20.44 57.91,-3.4 129.45,-5.84 214.62,-6.81 85.17,-0.97 163.52,-1.46 234.58,-1.46 273.51,0 470.13,47.69 589.85,143.57 119.23,95.87 179.1,243.82 179.1,442.87 0,223.87 -60.84,385.45 -182.51,484.73 -121.18,99.77 -298.82,149.41 -532.42,149.41l-166.93 0 0 145.52c0,52.56 0.49,108.53 1.46,167.9 0.97,58.89 1.46,108.04 1.46,147.46 0,43.32 -19.47,65.7 -58.4,67.65 -17.03,1.95 -36.01,2.92 -56.94,2.92l-73 0 -11.2 0 -42.82 0c-15.09,0 -30.66,-0.97 -46.72,-2.92 -40.89,-3.89 -71.55,-15.57 -91.99,-35.04 -20.44,-19.95 -30.66,-53.05 -30.66,-100.26l0 -1212.79c0,-50.13 -0.48,-102.69 -1.46,-157.68 -0.97,-55 -2.43,-105.61 -4.38,-151.36zm407.35 197.1c3.89,33.59 6.33,65.71 7.3,96.37l0 89.06 0 277.4 0 94.9c0,30.67 -1.46,59.87 -4.38,87.61l158.66 0c105.6,0 185.42,-23.85 238.95,-71.06 53.05,-47.69 79.82,-131.89 79.82,-254.04 0,-66.68 -8.28,-121.18 -24.82,-163.04 -17.04,-41.37 -40.4,-74.46 -70.08,-98.31 -30.18,-23.84 -66.19,-40.39 -108.05,-48.66 -41.85,-8.77 -89.06,-13.15 -141.62,-13.15l-71.54 0c-20.93,0 -42.34,0.98 -64.24,2.92z"/>
  </g>
 </g>
</svg>
