<?xml version="1.0" encoding="utf-8"?>
<!-- Generator: Adobe Illustrator 23.0.3, SVG Export Plug-In . SVG Version: 6.00 Build 0)  -->
<svg version="1.1" id="Capa_1" xmlns="http://www.w3.org/2000/svg" xmlns:xlink="http://www.w3.org/1999/xlink" x="0px" y="0px"
	 viewBox="0 0 224 32" style="enable-background:new 0 0 224 32;" xml:space="preserve">
<style type="text/css">
	.st0{fill-rule:evenodd;clip-rule:evenodd;fill:#555555;}
	.st1{filter:url(#Adobe_OpacityMaskFilter);}
	.st2{fill-rule:evenodd;clip-rule:evenodd;fill:#FFFFFF;}
	.st3{mask:url(#b_1_);fill-rule:evenodd;clip-rule:evenodd;fill:#555555;}
	.st4{filter:url(#Adobe_OpacityMaskFilter_1_);}
	.st5{mask:url(#b_2_);fill-rule:evenodd;clip-rule:evenodd;fill:#555555;}
	.st6{filter:url(#Adobe_OpacityMaskFilter_2_);}
	.st7{mask:url(#b_3_);fill-rule:evenodd;clip-rule:evenodd;fill:#555555;}
	.st8{filter:url(#Adobe_OpacityMaskFilter_3_);}
	.st9{mask:url(#b_4_);fill-rule:evenodd;clip-rule:evenodd;fill:#555555;}
</style>
<g transform="translate(0 1)">
	<path class="st0" d="M47.2,6.7c1.2,0.6,2.2,1.6,3.1,2.9L48,11.6c-0.5-1.1-1.2-2-2-2.5c-0.8-0.5-1.9-0.8-3.2-0.8
		c-1.3,0-2.3,0.3-3,0.8c-0.7,0.5-1.1,1.2-1.1,2c0,0.8,0.3,1.4,1,1.8c0.7,0.4,1.9,0.8,3.7,1.1c1.7,0.3,3,0.7,4,1.1
		c1,0.5,1.7,1,2.2,1.7c0.5,0.7,0.7,1.5,0.7,2.6c0,1.1-0.3,2.1-0.9,2.9c-0.6,0.8-1.5,1.5-2.6,1.9c-1.1,0.4-2.4,0.7-3.9,0.7
		c-3.8,0-6.5-1.3-8.1-3.8l2.1-2.1c0.6,1.1,1.4,2,2.3,2.5c1,0.5,2.1,0.8,3.6,0.8c1.3,0,2.4-0.2,3.2-0.7c0.8-0.5,1.1-1.1,1.1-2
		c0-0.7-0.3-1.2-1-1.6c-0.7-0.4-1.9-0.8-3.6-1.1c-1.7-0.3-3.1-0.7-4.1-1.2c-1-0.5-1.8-1.1-2.2-1.8c-0.5-0.7-0.7-1.6-0.7-2.6
		c0-1.1,0.3-2,0.9-2.9C37,7.7,37.8,7,38.9,6.5c1.1-0.5,2.4-0.8,3.9-0.8C44.5,5.7,46,6,47.2,6.7 M63.6,6.7c1.2,0.6,2.2,1.6,3.1,2.9
		l-2.3,2.1c-0.5-1.1-1.2-2-2-2.5c-0.8-0.5-1.9-0.8-3.2-0.8c-1.3,0-2.3,0.3-3,0.8c-0.7,0.5-1.1,1.2-1.1,2c0,0.8,0.4,1.4,1.1,1.8
		c0.7,0.4,1.9,0.8,3.7,1.1c1.7,0.3,3,0.7,4,1.1c1,0.5,1.7,1,2.2,1.7c0.5,0.7,0.7,1.5,0.7,2.6c0,1.1-0.3,2.1-0.9,2.9
		c-0.6,0.8-1.5,1.5-2.6,1.9c-1.1,0.4-2.4,0.7-3.9,0.7c-3.8,0-6.5-1.3-8.1-3.8l2.1-2.1c0.6,1.1,1.4,2,2.3,2.5c1,0.5,2.1,0.8,3.6,0.8
		c1.3,0,2.4-0.2,3.2-0.7c0.8-0.5,1.1-1.1,1.1-2c0-0.7-0.3-1.2-1-1.6c-0.7-0.4-1.9-0.8-3.6-1.1c-1.7-0.3-3.1-0.7-4.1-1.2
		c-1-0.5-1.8-1.1-2.2-1.8c-0.5-0.7-0.7-1.6-0.7-2.6c0-1.1,0.3-2,0.9-2.9c0.6-0.9,1.4-1.6,2.5-2.1c1.1-0.5,2.4-0.8,3.9-0.8
		C60.9,5.7,62.4,6,63.6,6.7 M83.8,24.7h-3.6L73,12.9l-1.8-3.5h0l0.1,3.2v12.1h-2.8V6H72l7.2,11.8l1.8,3.5h0L81,18.1V6h2.8V24.7z
		 M103.3,7.3l-0.7,0.6c-0.2-0.5-0.5-0.8-0.8-1c-0.3-0.2-0.7-0.3-1.2-0.3c-0.6,0-1,0.1-1.3,0.3c-0.3,0.2-0.5,0.5-0.5,0.9
		c0,0.2,0.1,0.4,0.2,0.6c0.1,0.2,0.3,0.3,0.6,0.4c0.3,0.1,0.7,0.2,1.2,0.3c0.9,0.2,1.6,0.4,2,0.7c0.4,0.3,0.6,0.8,0.6,1.3
		c0,0.4-0.1,0.8-0.3,1.1c-0.2,0.3-0.6,0.5-1,0.7s-0.9,0.3-1.5,0.3c-0.7,0-1.3-0.1-1.8-0.4c-0.5-0.3-0.9-0.7-1.2-1.1l0.7-0.6
		c0.2,0.4,0.5,0.8,0.9,1c0.4,0.2,0.9,0.4,1.4,0.4c0.6,0,1-0.1,1.3-0.3c0.3-0.2,0.5-0.5,0.5-0.9c0-0.3-0.1-0.6-0.4-0.8
		c-0.3-0.2-0.8-0.3-1.5-0.5c-1-0.2-1.6-0.4-2-0.7c-0.4-0.3-0.6-0.7-0.6-1.3c0-0.4,0.1-0.7,0.3-1.1c0.2-0.3,0.5-0.6,0.9-0.8
		c0.4-0.2,0.9-0.3,1.4-0.3C101.8,5.8,102.7,6.3,103.3,7.3 M110.8,10.4c0,0.9-0.2,1.6-0.7,2.1c-0.5,0.5-1.2,0.7-2.1,0.7
		c-0.9,0-1.6-0.2-2.1-0.7c-0.5-0.5-0.7-1.2-0.7-2.1V5.9h0.9v4.3c0,0.8,0.2,1.3,0.5,1.7c0.3,0.3,0.8,0.5,1.5,0.5
		c0.7,0,1.2-0.2,1.5-0.5c0.3-0.4,0.5-0.9,0.5-1.7V5.9h0.9C110.8,5.9,110.8,10.4,110.8,10.4z M116.7,9.1c0.3-0.2,0.4-0.6,0.4-1
		c0-0.5-0.1-0.8-0.4-1c-0.3-0.2-0.7-0.3-1.2-0.3h-1.5v2.7h1.5C116,9.4,116.4,9.3,116.7,9.1 M117.3,6.5c0.4,0.4,0.7,0.9,0.7,1.6
		c0,0.7-0.2,1.2-0.7,1.6c-0.4,0.4-1,0.6-1.7,0.6h-1.7V13h-0.9V5.9h2.5C116.3,5.9,116.9,6.1,117.3,6.5 M124.9,12.2V13h-5.2V5.9h5v0.8
		h-4.2V9h3.2v0.8h-3.2v2.4L124.9,12.2z M127.6,9.2h1.8c1,0,1.5-0.4,1.5-1.3c0-0.8-0.5-1.3-1.5-1.3h-1.8L127.6,9.2L127.6,9.2z
		 M129.3,10.1h-1.7v3h-0.9V5.9h2.7c0.7,0,1.3,0.2,1.8,0.6c0.4,0.4,0.7,0.9,0.7,1.5c0,0.5-0.1,0.9-0.4,1.3c-0.3,0.4-0.7,0.6-1.2,0.7
		l2,3.1h-1L129.3,10.1L129.3,10.1z"/>
	<defs>
		<filter id="Adobe_OpacityMaskFilter" filterUnits="userSpaceOnUse" x="0" y="0" width="224" height="30.8">
			<feColorMatrix  type="matrix" values="1 0 0 0 0  0 1 0 0 0  0 0 1 0 0  0 0 0 1 0"/>
		</filter>
	</defs>
	<mask maskUnits="userSpaceOnUse" x="0" y="0" width="224" height="30.8" id="b_1_">
		<g class="st1">
			<path id="a_1_" class="st2" d="M0,30.8h224V0H0V30.8z"/>
		</g>
	</mask>
	<path class="st3" d="M133.9,13h0.9V5.9h-0.9V13z M142.8,13h-1.1l-3-4.8L138,6.8h0l0,1.1V13h-0.8V5.9h1.1l3,4.8l0.8,1.4h0l0-1.1v-5
		h0.8V13z M150.2,6.7h-2.5V13h-0.9V6.7h-2.5V5.9h5.9L150.2,6.7z M157,12.2V13h-5.2V5.9h5v0.8h-4.1V9h3.2v0.8h-3.2v2.4L157,12.2z
		 M164.4,13h-1.1l-3-4.8l-0.8-1.4h0l0,1.1V13h-0.8V5.9h1.1l3,4.8l0.8,1.4h0l0-1.1v-5h0.8L164.4,13z M171.1,11.5
		c0.5-0.5,0.7-1.2,0.7-2c0-0.9-0.2-1.5-0.7-2c-0.5-0.5-1.1-0.7-1.9-0.7h-1.5v5.5h1.5C170,12.2,170.6,12,171.1,11.5 M171.7,6.8
		c0.6,0.6,1,1.5,1,2.6c0,1.1-0.3,2-0.9,2.6c-0.6,0.6-1.5,0.9-2.6,0.9h-2.3V5.9h2.3C170.2,5.9,171.1,6.2,171.7,6.8 M179.8,12.2V13
		h-5.2V5.9h5v0.8h-4.1V9h3.2v0.8h-3.2v2.4L179.8,12.2z M187.2,13h-1.1l-3-4.8l-0.8-1.4h0l0,1.1V13h-0.8V5.9h1.1l3,4.8l0.8,1.4h0
		l0-1.1v-5h0.8L187.2,13z M194.2,12.6c-0.5,0.3-1.1,0.5-1.8,0.5c-0.7,0-1.3-0.2-1.8-0.5c-0.5-0.3-0.9-0.7-1.2-1.3
		c-0.3-0.5-0.4-1.2-0.4-2c0-0.7,0.1-1.4,0.4-1.9c0.3-0.5,0.7-1,1.2-1.3c0.5-0.3,1.1-0.4,1.7-0.4c0.7,0,1.3,0.1,1.7,0.4
		c0.5,0.3,0.8,0.7,1,1.3l-0.9,0.4c-0.2-0.4-0.4-0.7-0.7-0.9c-0.3-0.2-0.7-0.3-1.2-0.3c-0.5,0-0.9,0.1-1.3,0.3
		c-0.4,0.2-0.7,0.6-0.9,1c-0.2,0.4-0.3,0.9-0.3,1.5c0,0.9,0.2,1.6,0.6,2.1c0.4,0.5,1,0.8,1.8,0.8c0.5,0,0.9-0.1,1.3-0.4
		c0.4-0.3,0.6-0.6,0.8-1.1l0.9,0.3C195.1,11.8,194.7,12.3,194.2,12.6 M197.1,13h0.9V5.9h-0.9V13z M204,10.2l-1-2.5l-0.3-1h0l-0.3,1
		l-1,2.6L204,10.2L204,10.2z M204.3,11h-3.2l-0.8,2h-0.9l2.8-7.2h1L206,13h-0.9L204.3,11z M215.2,11.5c0.5-0.5,0.7-1.2,0.7-2
		c0-0.9-0.2-1.5-0.7-2c-0.5-0.5-1.1-0.7-1.9-0.7h-1.5v5.5h1.5C214.1,12.2,214.7,12,215.2,11.5 M215.8,6.8c0.6,0.6,1,1.5,1,2.6
		c0,1.1-0.3,2-1,2.6c-0.6,0.6-1.5,0.9-2.6,0.9h-2.3V5.9h2.3C214.3,5.9,215.2,6.2,215.8,6.8 M223.9,12.2V13h-5.2V5.9h5v0.8h-4.1V9
		h3.2v0.8h-3.2v2.4L223.9,12.2z M103.3,18.8l-0.7,0.6c-0.2-0.5-0.5-0.8-0.8-1c-0.3-0.2-0.7-0.3-1.2-0.3c-0.6,0-1,0.1-1.3,0.3
		c-0.3,0.2-0.5,0.5-0.5,0.9c0,0.2,0.1,0.4,0.2,0.6c0.1,0.2,0.3,0.3,0.6,0.4c0.3,0.1,0.7,0.2,1.2,0.3c0.9,0.2,1.6,0.4,2,0.7
		c0.4,0.3,0.6,0.8,0.6,1.3c0,0.4-0.1,0.8-0.3,1.1c-0.2,0.3-0.6,0.5-1,0.7c-0.4,0.2-0.9,0.3-1.5,0.3c-0.7,0-1.3-0.1-1.8-0.4
		c-0.5-0.3-0.9-0.7-1.2-1.1l0.7-0.6c0.2,0.4,0.5,0.8,0.9,1c0.4,0.2,0.9,0.4,1.4,0.4c0.6,0,1-0.1,1.3-0.3c0.3-0.2,0.5-0.5,0.5-0.9
		c0-0.3-0.1-0.6-0.4-0.8c-0.3-0.2-0.8-0.3-1.5-0.5c-1-0.2-1.6-0.4-2-0.7c-0.4-0.3-0.6-0.7-0.6-1.3c0-0.4,0.1-0.7,0.3-1.1
		c0.2-0.3,0.5-0.6,0.9-0.8c0.4-0.2,0.9-0.3,1.4-0.3C101.8,17.3,102.7,17.8,103.3,18.8 M110.1,23.8v0.8H105v-7.1h5v0.8h-4.1v2.3h3.2
		v0.8h-3.2v2.4L110.1,23.8z M117.3,21v3.6h-0.7l0-1c-0.2,0.3-0.5,0.6-0.9,0.8c-0.4,0.2-0.8,0.3-1.4,0.3c-0.7,0-1.3-0.2-1.8-0.5
		c-0.5-0.3-0.9-0.7-1.2-1.3c-0.3-0.6-0.4-1.2-0.4-2c0-0.7,0.1-1.4,0.4-2c0.3-0.5,0.7-1,1.2-1.3c0.5-0.3,1.1-0.5,1.8-0.5
		c0.7,0,1.3,0.1,1.7,0.4c0.5,0.3,0.8,0.7,1.1,1.2l-0.8,0.4c-0.1-0.4-0.4-0.7-0.8-0.9c-0.4-0.2-0.8-0.3-1.3-0.3
		c-0.5,0-0.9,0.1-1.3,0.3c-0.4,0.2-0.6,0.6-0.9,1c-0.2,0.4-0.3,0.9-0.3,1.5c0,0.9,0.2,1.6,0.6,2.1c0.4,0.5,1,0.8,1.8,0.8
		c0.6,0,1.1-0.2,1.5-0.5c0.4-0.3,0.6-0.8,0.6-1.4v-0.3h-2.3V21C114.2,21,117.3,21,117.3,21z M124.7,21.9c0,0.9-0.2,1.6-0.7,2.1
		c-0.5,0.5-1.2,0.7-2.1,0.7c-0.9,0-1.6-0.2-2.1-0.7c-0.5-0.5-0.7-1.2-0.7-2.1v-4.5h0.9v4.3c0,0.8,0.2,1.3,0.5,1.7
		c0.3,0.4,0.8,0.5,1.5,0.5c0.7,0,1.2-0.2,1.5-0.5c0.3-0.4,0.5-0.9,0.5-1.7v-4.3h0.9C124.7,17.4,124.7,21.9,124.7,21.9z M127.6,20.8
		h1.8c1,0,1.5-0.4,1.5-1.3c0-0.9-0.5-1.3-1.5-1.3h-1.8C127.6,18.2,127.6,20.8,127.6,20.8z M129.3,21.6h-1.7v3h-0.9v-7.1h2.7
		c0.7,0,1.3,0.2,1.8,0.6c0.4,0.4,0.7,0.9,0.7,1.5c0,0.5-0.1,0.9-0.4,1.3c-0.3,0.3-0.7,0.6-1.2,0.7l2,3.1h-1L129.3,21.6L129.3,21.6z
		 M134.8,18.9c-0.4,0.5-0.6,1.2-0.6,2.1c0,0.9,0.2,1.6,0.6,2.1c0.4,0.5,1,0.8,1.8,0.8c0.7,0,1.3-0.3,1.8-0.8
		c0.4-0.5,0.6-1.2,0.6-2.1c0-0.9-0.2-1.6-0.6-2.1c-0.4-0.5-1-0.8-1.8-0.8C135.8,18.1,135.2,18.4,134.8,18.9 M138.3,17.8
		c0.5,0.3,0.9,0.7,1.2,1.3c0.3,0.5,0.4,1.2,0.4,2c0,0.8-0.1,1.4-0.4,2c-0.3,0.5-0.7,1-1.2,1.3c-0.5,0.3-1.1,0.5-1.8,0.5
		c-0.7,0-1.3-0.1-1.8-0.5c-0.5-0.3-0.9-0.7-1.2-1.3c-0.3-0.6-0.4-1.2-0.4-2c0-0.8,0.1-1.4,0.4-2c0.2-0.5,0.7-1,1.2-1.3
		c0.5-0.3,1.1-0.5,1.8-0.5S137.8,17.5,138.3,17.8 M146.6,18.8l-0.7,0.6c-0.2-0.5-0.5-0.8-0.8-1c-0.3-0.2-0.7-0.3-1.2-0.3
		c-0.6,0-1,0.1-1.3,0.3c-0.3,0.2-0.5,0.5-0.5,0.9c0,0.2,0.1,0.4,0.2,0.6c0.1,0.2,0.3,0.3,0.6,0.4c0.3,0.1,0.7,0.2,1.2,0.3
		c0.9,0.2,1.6,0.4,2,0.7c0.4,0.3,0.6,0.8,0.6,1.3c0,0.4-0.1,0.8-0.3,1.1c-0.2,0.3-0.6,0.5-1,0.7c-0.4,0.2-0.9,0.3-1.5,0.3
		c-0.7,0-1.3-0.1-1.9-0.4c-0.5-0.3-0.9-0.7-1.2-1.1l0.8-0.6c0.2,0.4,0.5,0.8,0.9,1c0.4,0.2,0.9,0.4,1.4,0.4c0.6,0,1-0.1,1.3-0.3
		c0.3-0.2,0.5-0.5,0.5-0.9c0-0.3-0.1-0.6-0.4-0.8c-0.3-0.2-0.8-0.3-1.5-0.5c-0.9-0.2-1.6-0.4-2-0.7c-0.4-0.3-0.6-0.7-0.6-1.3
		c0-0.4,0.1-0.7,0.3-1.1c0.2-0.3,0.5-0.6,0.9-0.8c0.4-0.2,0.9-0.3,1.4-0.3C145.1,17.3,146,17.8,146.6,18.8 M156.1,23
		c0.5-0.5,0.7-1.2,0.7-2c0-0.9-0.2-1.5-0.7-2c-0.5-0.5-1.1-0.7-1.9-0.7h-1.5v5.5h1.5C155,23.8,155.6,23.5,156.1,23 M156.7,18.4
		c0.6,0.6,1,1.5,1,2.6c0,1.1-0.3,2-1,2.6c-0.6,0.6-1.5,0.9-2.6,0.9h-2.3v-7.2h2.3C155.2,17.4,156.1,17.7,156.7,18.4 M164.5,23.8v0.8
		h-5.2v-7.1h5v0.8h-4.1v2.3h3.2v0.8h-3.2v2.4L164.5,23.8z M174.5,23.8v0.8h-5v-7.1h0.9v6.3L174.5,23.8z M179.5,21.8l-1-2.5l-0.3-1h0
		l-0.3,1l-1,2.6H179.5L179.5,21.8z M179.8,22.6h-3.2l-0.8,2h-0.9l2.8-7.2h1l2.8,7.2h-0.9L179.8,22.6L179.8,22.6z M191.4,24.6h-1.1
		l-3-4.8l-0.8-1.4h0l0,1.1v5.1h-0.8v-7.1h1.1l3,4.8l0.8,1.4h0l0-1.1v-5h0.8L191.4,24.6z M197.3,21.8l-1-2.5l-0.3-1h0l-0.3,1l-1,2.6
		H197.3L197.3,21.8z M197.6,22.6h-3.2l-0.8,2h-0.9l2.8-7.2h1l2.8,7.2h-0.9L197.6,22.6L197.6,22.6z M204.9,24.2
		c-0.5,0.3-1.1,0.5-1.8,0.5c-0.7,0-1.3-0.2-1.8-0.5c-0.5-0.3-0.9-0.7-1.2-1.3c-0.3-0.6-0.4-1.2-0.4-2c0-0.7,0.1-1.4,0.4-2
		c0.2-0.5,0.6-1,1.2-1.3c0.5-0.3,1.1-0.5,1.7-0.5c0.7,0,1.3,0.1,1.7,0.4c0.5,0.3,0.8,0.7,1,1.2l-0.9,0.4c-0.2-0.4-0.4-0.7-0.7-0.9
		c-0.3-0.2-0.7-0.3-1.2-0.3c-0.5,0-0.9,0.1-1.3,0.3c-0.4,0.2-0.7,0.6-0.9,1c-0.2,0.4-0.3,0.9-0.3,1.5c0,0.9,0.2,1.6,0.6,2.1
		c0.4,0.5,1,0.8,1.8,0.8c0.5,0,0.9-0.1,1.3-0.4c0.4-0.2,0.6-0.6,0.8-1.1l0.9,0.3C205.8,23.3,205.4,23.8,204.9,24.2 M207.5,24.6h0.9
		v-7.1h-0.9V24.6z M214.6,14.9l-0.9,1.6h-0.7l0.6-1.6L214.6,14.9L214.6,14.9z M211.6,18.9c-0.4,0.5-0.6,1.2-0.6,2.1
		c0,0.9,0.2,1.6,0.6,2.1c0.4,0.5,1,0.8,1.8,0.8s1.3-0.3,1.8-0.8c0.4-0.5,0.6-1.2,0.6-2.1c0-0.9-0.2-1.6-0.6-2.1
		c-0.4-0.5-1-0.8-1.8-0.8S212,18.4,211.6,18.9L211.6,18.9z M215.1,17.8c0.5,0.3,0.9,0.7,1.2,1.3c0.3,0.5,0.4,1.2,0.4,2
		s-0.1,1.4-0.4,2c-0.3,0.5-0.7,1-1.2,1.3c-0.5,0.3-1.1,0.5-1.8,0.5c-0.7,0-1.3-0.2-1.8-0.5c-0.5-0.3-0.9-0.7-1.2-1.3
		c-0.3-0.6-0.4-1.2-0.4-2s0.1-1.4,0.4-2c0.2-0.5,0.6-1,1.2-1.3c0.5-0.3,1.1-0.5,1.8-0.5C214,17.3,214.6,17.5,215.1,17.8L215.1,17.8z
		 M224,24.6h-1.1l-3-4.8l-0.8-1.4h0l0,1.1v5.1h-0.8v-7.1h1.1l3,4.8l0.8,1.4h0l0-1.1v-5h0.8V24.6z M15.4,29.2
		C7.7,29.2,1.6,23,1.6,15.4c0-7.6,6.2-13.8,13.8-13.8c7.6,0,13.8,6.2,13.8,13.8C29.2,23,23,29.2,15.4,29.2 M15.4,0
		C6.9,0,0,6.9,0,15.4c0,8.5,6.9,15.4,15.4,15.4c8.5,0,15.4-6.9,15.4-15.4C30.8,6.9,23.9,0,15.4,0"/>
	<defs>
		<filter id="Adobe_OpacityMaskFilter_1_" filterUnits="userSpaceOnUse" x="3.7" y="5.3" width="23.4" height="9.2">
			<feColorMatrix  type="matrix" values="1 0 0 0 0  0 1 0 0 0  0 0 1 0 0  0 0 0 1 0"/>
		</filter>
	</defs>
	<mask maskUnits="userSpaceOnUse" x="3.7" y="5.3" width="23.4" height="9.2" id="b_2_">
		<g class="st4">
			<path id="a_2_" class="st2" d="M0,30.8h224V0H0V30.8z"/>
		</g>
	</mask>
	<path class="st5" d="M15.4,10.4c5.9,0,9.6,2.1,11.7,4.1c-0.1-1.5-0.5-3-1.2-4.3c-2.1-2.6-5.5-4.9-10.5-4.9c-5.1,0-8.4,2.3-10.5,4.9
		c-0.7,1.3-1.1,2.8-1.2,4.3C5.8,12.6,9.4,10.4,15.4,10.4"/>
	<defs>
		<filter id="Adobe_OpacityMaskFilter_2_" filterUnits="userSpaceOnUse" x="3.8" y="12.2" width="23.2" height="8.9">
			<feColorMatrix  type="matrix" values="1 0 0 0 0  0 1 0 0 0  0 0 1 0 0  0 0 0 1 0"/>
		</filter>
	</defs>
	<mask maskUnits="userSpaceOnUse" x="3.8" y="12.2" width="23.2" height="8.9" id="b_3_">
		<g class="st6">
			<path id="a_3_" class="st2" d="M0,30.8h224V0H0V30.8z"/>
		</g>
	</mask>
	<path class="st7" d="M3.8,17c0.2,1.4,0.7,2.8,1.4,4.1c2.5-1.8,6.1-3.6,10.2-3.6c4.1,0,7.7,1.8,10.2,3.6c0.7-1.3,1.2-2.7,1.4-4.1
		c-2-2.6-5.4-4.8-11.6-4.8C9.2,12.2,5.7,14.5,3.8,17"/>
	<defs>
		<filter id="Adobe_OpacityMaskFilter_3_" filterUnits="userSpaceOnUse" x="6.2" y="5.8" width="85.5" height="19.5">
			<feColorMatrix  type="matrix" values="1 0 0 0 0  0 1 0 0 0  0 0 1 0 0  0 0 0 1 0"/>
		</filter>
	</defs>
	<mask maskUnits="userSpaceOnUse" x="6.2" y="5.8" width="85.5" height="19.5" id="b_4_">
		<g class="st8">
			<path id="a_4_" class="st2" d="M0,30.8h224V0H0V30.8z"/>
		</g>
	</mask>
	<path class="st9" d="M24.6,22.7c-2.1-1.9-5.1-3.4-9.2-3.4c-4.1,0-7.1,1.5-9.2,3.4c0.8,0.9,1.6,1.8,2.6,2.5c1.8-0.6,4-1,6.6-1
		c2.6,0,4.8,0.4,6.5,1C22.9,24.4,23.8,23.6,24.6,22.7 M91,25.2h0.7V5.8H91V25.2z"/>
</g>
</svg>
